<svg xmlns="http://www.w3.org/2000/svg" viewBox="0 0 980 760"><rect width="980" height="760" fill="#f6f3ef"/><rect x="76" y="76" width="828" height="608" rx="18" fill="#fbfaf7"/><path d="M126 532c72-78 148 78 220 0s148 78 220 0 148 78 288 0v152H126z" fill="#0d514f"/><path d="M126 580c72-54 148 54 220 0s148 54 220 0 148 54 288 0" fill="none" stroke="#8ed8cf" stroke-width="9" stroke-linecap="round"/><circle cx="758" cy="160" r="54" fill="#d96d4d"/><path d="M324 168c0 56-62 62-82 142l-48 170h264l-50-170c-18-80-84-86-84-142z" fill="#e7dfd5" stroke="#18211f" stroke-width="8"/><path d="M590 188c-38 74-64 142-46 292h182c18-150-8-218-46-292z" fill="#7d7860" stroke="#18211f" stroke-width="8"/><rect x="612" y="436" width="158" height="94" rx="12" fill="#18211f"/><path d="M654 436c8-34 66-34 74 0" fill="none" stroke="#fbfaf7" stroke-width="7"/><text x="128" y="102" font-family="Georgia,serif" font-size="48" fill="#18211f">Tienda de diseno mediterraneo</text></svg>