<svg xmlns="http://www.w3.org/2000/svg" viewBox="0 0 900 700"><rect width="900" height="700" fill="#e7dfd5"/><rect x="76" y="86" width="748" height="470" rx="12" fill="#fbfaf7"/><path d="M146 178h604" stroke="#18211f" stroke-width="14" stroke-linecap="round"/><path d="M226 178v292M450 178v292M674 178v292" stroke="#18211f" stroke-width="8" stroke-linecap="round"/><path d="M282 198c-36 84-56 150-50 238h148c6-88-14-154-50-238z" fill="#0d514f"/><path d="M504 214c-48 58-74 128-74 222h170c0-94-28-164-76-222z" fill="#d96d4d"/><path d="M662 226c-28 64-44 118-38 210h120c6-92-10-146-38-210z" fill="#7d7860"/><rect x="144" y="492" width="612" height="48" fill="#18211f"/><text x="132" y="632" font-family="Georgia,serif" font-size="44" fill="#18211f">Saiz de Carlos 33 · Peniscola</text></svg>