<svg xmlns="http://www.w3.org/2000/svg" viewBox="0 0 900 700" role="img" aria-labelledby="t d">
  <title id="t">Entre Mares coastal shop postcard</title>
  <desc id="d">Mediterranean postcard with map line, sun, waves, shop window and folded apparel blocks.</desc>
  <rect width="900" height="700" fill="#eef7f8"/>
  <rect x="78" y="74" width="744" height="520" rx="18" fill="#fffdf8" stroke="#d2e6e8" stroke-width="5"/>
  <path d="M134 424c64-34 128-34 192 0s128 34 192 0 128-34 248 0v86H134z" fill="#2d7180"/>
  <path d="M134 460c64-28 128-28 192 0s128 28 192 0 128-28 248 0" fill="none" stroke="#fffdf8" stroke-width="10" stroke-linecap="round"/>
  <circle cx="704" cy="158" r="54" fill="#e66c4f"/>
  <path d="M188 164c98 34 164 84 198 150 44-62 104-98 180-108" fill="none" stroke="#17272b" stroke-width="9" stroke-linecap="round"/>
  <rect x="168" y="238" width="168" height="118" rx="10" fill="#dcecef" stroke="#17272b" stroke-width="6"/>
  <rect x="378" y="286" width="142" height="70" rx="8" fill="#f5dccf" stroke="#17272b" stroke-width="6"/>
  <rect x="560" y="246" width="122" height="110" rx="8" fill="#7d806a" stroke="#17272b" stroke-width="6"/>
  <text x="132" y="644" font-family="Segoe UI,Arial,sans-serif" font-size="38" font-weight="700" fill="#17272b">Postal de tienda mediterranea</text>
</svg>
